<svg width="32" height="32" viewBox="0 0 32 32" fill="none" xmlns="http://www.w3.org/2000/svg">
<path d="M12.0003 29.3333H20.0003C26.667 29.3333 29.3337 26.6667 29.3337 20V12C29.3337 5.33332 26.667 2.66666 20.0003 2.66666H12.0003C5.33366 2.66666 2.66699 5.33332 2.66699 12V20C2.66699 26.6667 5.33366 29.3333 12.0003 29.3333Z" stroke="#7A7A7A" stroke-width="1.5" stroke-linecap="round" stroke-linejoin="round"/>
<path d="M15.9997 20.6667C18.577 20.6667 20.6663 18.5773 20.6663 16C20.6663 13.4227 18.577 11.3333 15.9997 11.3333C13.4223 11.3333 11.333 13.4227 11.333 16C11.333 18.5773 13.4223 20.6667 15.9997 20.6667Z" stroke="#7A7A7A" stroke-width="1.5" stroke-linecap="round" stroke-linejoin="round"/>
<path d="M23.5152 9.33332H23.5306" stroke="#7A7A7A" stroke-width="2" stroke-linecap="round" stroke-linejoin="round"/>
</svg>
